<svg width="132" height="80" viewBox="0 0 132 80" fill="none" xmlns="http://www.w3.org/2000/svg">
<mask id="mask0_93_517" style="mask-type:alpha" maskUnits="userSpaceOnUse" x="0" y="0" width="132" height="80">
<rect width="132" height="80" fill="#C4C4C4"/>
</mask>
<g mask="url(#mask0_93_517)">
<path d="M74.6319 -7.45056L75.5379 -6.31016C77.425 -3.93501 80.788 -3.34201 83.3736 -4.92851L84.6151 -5.69025C86.8093 -7.03661 89.6855 -5.98974 90.501 -3.54794L90.9624 -2.16642C91.9233 0.710907 94.8807 2.41836 97.853 1.81187L99.2801 1.52067C101.802 1.00598 104.147 2.97345 104.078 5.5469L104.039 7.0029C103.958 10.0354 106.153 12.6513 109.154 13.098L110.594 13.3125C113.141 13.6915 114.671 16.3423 113.726 18.737L113.192 20.0919C112.078 22.9137 113.246 26.1226 115.913 27.5686L117.193 28.2628C119.457 29.4899 119.988 32.5043 118.281 34.4314L117.315 35.5217C115.304 37.7926 115.304 41.2074 117.315 43.4783L118.281 44.5686C119.988 46.4957 119.457 49.5101 117.193 50.7372L115.913 51.4314C113.246 52.8774 112.078 56.0863 113.192 58.9081L113.726 60.263C114.671 62.6577 113.141 65.3085 110.594 65.6875L109.154 65.902C106.153 66.3487 103.958 68.9646 104.039 71.9971L104.078 73.4531C104.147 76.0265 101.802 77.994 99.2801 77.4793L97.853 77.1881C94.8807 76.5816 91.9233 78.2891 90.9624 81.1664L90.501 82.5479C89.6855 84.9897 86.8093 86.0366 84.6151 84.6903L83.3736 83.9285C80.788 82.342 77.425 82.935 75.5379 85.3102L74.6319 86.4506C73.0304 88.4662 69.9696 88.4662 68.3681 86.4506L67.4621 85.3102C65.575 82.935 62.212 82.342 59.6264 83.9285L58.3849 84.6902C56.1907 86.0366 53.3144 84.9897 52.499 82.5479L52.0376 81.1664C51.0767 78.2891 48.1193 76.5816 45.147 77.1881L43.7199 77.4793C41.1975 77.994 38.8528 76.0265 38.9216 73.4531L38.9606 71.9971C39.0417 68.9646 36.8467 66.3487 33.8462 65.902L32.4056 65.6875C29.8592 65.3085 28.3288 62.6577 29.2737 60.263L29.8083 58.9081C30.9217 56.0863 29.7537 52.8774 27.087 51.4314L25.8066 50.7372C23.5435 49.5101 23.012 46.4957 24.7189 44.5686L25.6846 43.4783C27.696 41.2074 27.696 37.7926 25.6846 35.5217L24.7189 34.4314C23.012 32.5043 23.5435 29.4899 25.8066 28.2628L27.087 27.5686C29.7537 26.1226 30.9217 22.9137 29.8083 20.0919L29.2737 18.737C28.3288 16.3423 29.8592 13.6915 32.4055 13.3125L33.8462 13.098C36.8467 12.6513 39.0417 10.0354 38.9606 7.0029L38.9216 5.54691C38.8528 2.97345 41.1975 1.00598 43.7199 1.52067L45.147 1.81187C48.1193 2.41835 51.0767 0.710911 52.0376 -2.16642L52.499 -3.54794C53.3144 -5.98974 56.1907 -7.03661 58.3849 -5.69025L59.6264 -4.92851C62.212 -3.34202 65.575 -3.935 67.4621 -6.31016L68.3681 -7.45056C69.9696 -9.4662 73.0304 -9.4662 74.6319 -7.45056Z" fill="#FD591E" fill-opacity="0.1" stroke="#FD591E" stroke-width="2"/>
</g>
<path d="M34.196 43.936V40.372H44.96V43.936H34.196ZM56.5843 57.364C54.7363 57.364 53.0803 56.944 51.6163 56.104C50.1523 55.288 49.0363 54.172 48.2683 52.756L50.6443 50.488C51.3163 51.52 52.1803 52.336 53.2363 52.936C54.2923 53.56 55.4203 53.872 56.6203 53.872C57.6043 53.872 58.4803 53.656 59.2483 53.224C60.0163 52.816 60.6163 52.24 61.0483 51.496C61.5043 50.728 61.7323 49.852 61.7323 48.868C61.7323 47.908 61.5163 47.068 61.0843 46.348C60.6523 45.604 60.0763 45.04 59.3563 44.656C58.6363 44.248 57.8083 44.044 56.8723 44.044C55.9603 44.044 55.1083 44.248 54.3163 44.656C53.5243 45.064 52.8763 45.64 52.3723 46.384H48.8803L51.7963 31.444H64.2883V35.08H54.6763L53.3803 42.064C53.7883 41.632 54.3403 41.284 55.0363 41.02C55.7323 40.732 56.5243 40.588 57.4123 40.588C59.0203 40.588 60.4483 40.948 61.6963 41.668C62.9683 42.364 63.9643 43.324 64.6843 44.548C65.4283 45.772 65.8003 47.188 65.8003 48.796C65.8003 50.5 65.3923 51.988 64.5763 53.26C63.7603 54.556 62.6563 55.564 61.2643 56.284C59.8723 57.004 58.3123 57.364 56.5843 57.364ZM87.2485 41.452C87.2485 43.564 86.8405 45.448 86.0245 47.104C85.2325 48.736 84.1405 50.02 82.7485 50.956C81.3805 51.892 79.8085 52.36 78.0325 52.36C76.2805 52.36 74.7085 51.892 73.3165 50.956C71.9245 50.02 70.8205 48.736 70.0045 47.104C69.2125 45.448 68.8165 43.564 68.8165 41.452C68.8165 39.34 69.2125 37.468 70.0045 35.836C70.8205 34.18 71.9245 32.884 73.3165 31.948C74.7085 30.988 76.2805 30.508 78.0325 30.508C79.8085 30.508 81.3805 30.988 82.7485 31.948C84.1405 32.884 85.2325 34.18 86.0245 35.836C86.8405 37.468 87.2485 39.34 87.2485 41.452ZM83.2165 41.452C83.2165 40.012 83.0005 38.752 82.5685 37.672C82.1365 36.568 81.5245 35.716 80.7325 35.116C79.9405 34.492 79.0405 34.18 78.0325 34.18C77.0005 34.18 76.0885 34.492 75.2965 35.116C74.5045 35.716 73.8805 36.568 73.4245 37.672C72.9925 38.752 72.7765 40.012 72.7765 41.452C72.7765 42.892 72.9925 44.152 73.4245 45.232C73.8805 46.312 74.5045 47.164 75.2965 47.788C76.0885 48.388 77.0005 48.688 78.0325 48.688C79.0405 48.688 79.9285 48.388 80.6965 47.788C81.4885 47.164 82.1005 46.312 82.5325 45.232C82.9885 44.152 83.2165 42.892 83.2165 41.452Z" fill="#FD591E"/>
<path d="M94.8 38.992C94.064 38.992 93.4 38.832 92.808 38.512C92.216 38.176 91.736 37.736 91.368 37.192C91.016 36.632 90.84 36.016 90.84 35.344C90.84 34.672 91.016 34.064 91.368 33.52C91.736 32.96 92.216 32.52 92.808 32.2C93.4 31.88 94.064 31.72 94.8 31.72C95.536 31.72 96.2 31.88 96.792 32.2C97.4 32.52 97.88 32.96 98.232 33.52C98.584 34.064 98.76 34.672 98.76 35.344C98.76 36.016 98.584 36.632 98.232 37.192C97.88 37.736 97.4 38.176 96.792 38.512C96.2 38.832 95.536 38.992 94.8 38.992ZM94.8 37.384C95.12 37.384 95.408 37.288 95.664 37.096C95.92 36.904 96.12 36.656 96.264 36.352C96.424 36.048 96.504 35.72 96.504 35.368C96.504 34.984 96.424 34.64 96.264 34.336C96.104 34.032 95.896 33.792 95.64 33.616C95.384 33.424 95.104 33.328 94.8 33.328C94.48 33.328 94.192 33.424 93.936 33.616C93.68 33.792 93.472 34.032 93.312 34.336C93.168 34.64 93.096 34.976 93.096 35.344C93.096 35.712 93.176 36.056 93.336 36.376C93.496 36.68 93.704 36.928 93.96 37.12C94.216 37.296 94.496 37.384 94.8 37.384ZM104.064 49.24C103.328 49.24 102.664 49.08 102.072 48.76C101.48 48.44 101 48.008 100.632 47.464C100.28 46.904 100.104 46.288 100.104 45.616C100.104 44.928 100.28 44.312 100.632 43.768C101 43.224 101.48 42.792 102.072 42.472C102.664 42.136 103.328 41.968 104.064 41.968C104.8 41.968 105.464 42.136 106.056 42.472C106.664 42.792 107.144 43.224 107.496 43.768C107.848 44.312 108.024 44.92 108.024 45.592C108.024 46.264 107.848 46.88 107.496 47.44C107.144 47.984 106.664 48.424 106.056 48.76C105.464 49.08 104.8 49.24 104.064 49.24ZM104.064 47.632C104.384 47.632 104.672 47.536 104.928 47.344C105.184 47.152 105.384 46.904 105.528 46.6C105.688 46.296 105.768 45.968 105.768 45.616C105.768 45.232 105.688 44.888 105.528 44.584C105.384 44.28 105.176 44.04 104.904 43.864C104.648 43.672 104.368 43.576 104.064 43.576C103.76 43.576 103.472 43.672 103.2 43.864C102.944 44.04 102.736 44.288 102.576 44.608C102.432 44.912 102.36 45.24 102.36 45.592C102.36 45.976 102.44 46.32 102.6 46.624C102.76 46.928 102.968 47.176 103.224 47.368C103.48 47.544 103.76 47.632 104.064 47.632ZM92.208 47.872L98.952 39.976L105.192 31.768L106.656 33.064L100.08 40.84L93.648 49.168L92.208 47.872Z" fill="#FD591E"/>
</svg>
